<svg xmlns="http://www.w3.org/2000/svg" xmlns:xlink="http://www.w3.org/1999/xlink" viewBox="0 0 500 500"><defs><style>.cls-1{fill:url(#Dégradé_sans_nom_3);}.cls-2{fill:url(#Dégradé_sans_nom_3-2);}.cls-3{fill:url(#Dégradé_sans_nom_3-3);}</style><linearGradient id="Dégradé_sans_nom_3" x1="83.41" y1="195.08" x2="363.11" y2="195.08" gradientUnits="userSpaceOnUse"><stop offset="0" stop-color="#f3618b"/><stop offset="1" stop-color="#fb9f3a"/></linearGradient><linearGradient id="Dégradé_sans_nom_3-2" x1="187.61" y1="78.53" x2="319.16" y2="78.53" xlink:href="#Dégradé_sans_nom_3"/><linearGradient id="Dégradé_sans_nom_3-3" x1="161.73" y1="357.77" x2="401.63" y2="357.77" xlink:href="#Dégradé_sans_nom_3"/></defs><title>tipsMyWeb icon</title><g id="Calque_1"><path class="cls-1" d="M363.11,199.71a38,38,0,0,1-37.92,37.91,36.59,36.59,0,0,1-14.31-2.8c-.2-.1-.39-.1-.58-.19-31.24-11.71-90.44-22.93-176.23,7.06a38.06,38.06,0,1,1-25-71.87c107.65-37.52,185.61-22.92,230.87-5.12A38,38,0,0,1,363.11,199.71Z"/><path class="cls-2" d="M307.29,83.61c-1.41,1.41-19,19-36.23,53.64a335.76,335.76,0,0,0-83.45,1.85c27-72,65.28-108.81,67.46-110.76a38,38,0,0,1,52.22,55.27Z"/><path class="cls-3" d="M400,380.53c-27.64,91.61-81.39,101.52-103.25,101.52-33.41,0-63.11-13.93-86.18-40.26-37.21-42.54-54.83-117.29-47-197.81,29.92-8.16,56-10.88,77.91-10.44-.33,1.85-.66,3.81-.88,5.77-8.37,62.88,2.61,124.14,27.31,152.43,11.1,12.73,21.76,14.14,28.84,14.14,5.22,0,19.58-11.53,30.35-47.33a38.07,38.07,0,0,1,72.9,22Z"/></g></svg>