<?xml version="1.0" encoding="utf-8"?>
<!-- Generator: Adobe Illustrator 22.0.1, SVG Export Plug-In . SVG Version: 6.00 Build 0)  -->
<svg version="1.1" id="Layer_1" xmlns="http://www.w3.org/2000/svg" xmlns:xlink="http://www.w3.org/1999/xlink" x="0px" y="0px"
	 viewBox="0 0 500 300" style="enable-background:new 0 0 500 300;" xml:space="preserve">
<style type="text/css">
	.st0{fill:#EFEFEF;}
	.st1{fill:#F5F5F5;}
	.st2{fill:url(#SVGID_1_);}
	.st3{fill:#FFFFFF;}
	.st4{fill:#FF5252;}
	.st5{fill:#FFFF00;}
	.st6{fill:#69F0AE;}
	.st7{fill:#FB9E3A;}
	.st8{fill:url(#SVGID_2_);}
	.st9{fill:url(#SVGID_3_);}
	.st10{fill:url(#SVGID_4_);}
	.st11{fill:url(#SVGID_5_);}
	.st12{fill:url(#SVGID_6_);}
	.st13{fill:#FFFFFF;stroke:#FFFFFF;stroke-miterlimit:10;}
	.st14{opacity:0.1;enable-background:new    ;}
	.st15{fill:#E0E0E0;}
	.st16{fill:#BDBDBD;}
	.st17{fill:url(#SVGID_7_);}
	.st18{fill:url(#SVGID_8_);}
	.st19{fill:url(#SVGID_9_);}
	.st20{fill:url(#SVGID_10_);}
	.st21{fill:#2196F3;}
	.st22{fill:url(#SVGID_11_);}
	.st23{fill:url(#SVGID_12_);}
	.st24{fill:url(#SVGID_13_);}
	.st25{fill:url(#SVGID_14_);}
	.st26{fill:url(#SVGID_15_);}
	.st27{fill:url(#SVGID_16_);}
	.st28{fill:url(#SVGID_17_);}
	.st29{fill:url(#SVGID_18_);}
	.st30{fill:#64FFDA;}
</style>
<g>
	<rect class="st0" width="500" height="300"/>
</g>
<rect x="162.7" y="91.4" transform="matrix(0.9647 -0.2634 0.2634 0.9647 -26.282 69.6247)" class="st1" width="167.7" height="82.8"/>
<linearGradient id="SVGID_1_" gradientUnits="userSpaceOnUse" x1="-251.5695" y1="185.1885" x2="-251.5695" y2="270.0681" gradientTransform="matrix(0.9647 -0.2634 -0.2634 -0.9647 549.3392 287.0944)">
	<stop  offset="0" style="stop-color:#808080;stop-opacity:0.25"/>
	<stop  offset="0.54" style="stop-color:#808080;stop-opacity:0.12"/>
	<stop  offset="1" style="stop-color:#808080;stop-opacity:0.1"/>
</linearGradient>
<polygon class="st2" points="153.6,115.2 317.4,70.5 339.8,152.3 176,197 "/>
<rect x="163.8" y="99.7" transform="matrix(0.9647 -0.2634 0.2634 0.9647 -27.3044 70.0577)" class="st3" width="167.7" height="74.4"/>
<circle class="st4" cx="159.3" cy="117.7" r="2.1"/>
<circle class="st5" cx="165.8" cy="116.2" r="2.1"/>
<circle class="st6" cx="171.9" cy="114.5" r="2.1"/>
<rect x="166" y="115.9" transform="matrix(0.9647 -0.2634 0.2634 0.9647 -33.6856 54.9406)" class="st7" width="44.2" height="74.5"/>
<linearGradient id="SVGID_2_" gradientUnits="userSpaceOnUse" x1="-313.2653" y1="227.9075" x2="-313.2653" y2="249.5743" gradientTransform="matrix(0.9647 -0.2634 -0.2634 -0.9647 549.3391 287.0967)">
	<stop  offset="0" style="stop-color:#000000;stop-opacity:0.12"/>
	<stop  offset="0.55" style="stop-color:#000000;stop-opacity:9.000000e-02"/>
	<stop  offset="1" style="stop-color:#000000;stop-opacity:2.000000e-02"/>
</linearGradient>
<path class="st8" d="M195.6,136.5c-1.6-5.9-8-9.4-14.2-7.6c-6.3,1.7-10,7.9-8.4,13.8c1.3,4.7,5.5,7.8,10.3,8.1l-0.8-2.8
	c-0.5-2,0.8-4.2,2.9-4.7l0,0c2.1-0.6,4.3,0.6,4.8,2.6l0.8,2.8C194.9,146,197,141.1,195.6,136.5z"/>
<linearGradient id="SVGID_3_" gradientUnits="userSpaceOnUse" x1="-313.196" y1="231.559" x2="-313.196" y2="236.2909" gradientTransform="matrix(0.9647 -0.2634 -0.2634 -0.9647 549.3395 287.0922)">
	<stop  offset="0" style="stop-color:#000000;stop-opacity:0.12"/>
	<stop  offset="0.55" style="stop-color:#000000;stop-opacity:9.000000e-02"/>
	<stop  offset="1" style="stop-color:#000000;stop-opacity:2.000000e-02"/>
</linearGradient>
<path class="st9" d="M184.9,141.7h0.2c0.3-0.1,0.7,0.1,0.8,0.4l0.9,3.4c0.1,0.3-0.1,0.7-0.4,0.8h-0.2c-0.3,0.1-0.7-0.1-0.8-0.4
	l-0.9-3.4C184.3,142.1,184.5,141.7,184.9,141.7z"/>
<linearGradient id="SVGID_4_" gradientUnits="userSpaceOnUse" x1="-313.2245" y1="235.6548" x2="-313.2245" y2="244.2324" gradientTransform="matrix(0.9647 -0.2634 -0.2634 -0.9647 549.3376 287.0924)">
	<stop  offset="0" style="stop-color:#000000;stop-opacity:0.12"/>
	<stop  offset="0.55" style="stop-color:#000000;stop-opacity:9.000000e-02"/>
	<stop  offset="1" style="stop-color:#000000;stop-opacity:2.000000e-02"/>
</linearGradient>
<path class="st10" d="M182.8,134c2.4-0.7,4.8,0.7,5.5,3c0.6,2.3-0.8,4.7-3.2,5.3c-2.4,0.7-4.8-0.7-5.5-3
	C178.9,137,180.4,134.6,182.8,134z"/>
<linearGradient id="SVGID_5_" gradientUnits="userSpaceOnUse" x1="-313.2871" y1="227.256" x2="-313.2871" y2="234.5641" gradientTransform="matrix(0.9647 -0.2634 -0.2634 -0.9647 549.3391 287.0967)">
	<stop  offset="0" style="stop-color:#000000;stop-opacity:0.12"/>
	<stop  offset="0.55" style="stop-color:#000000;stop-opacity:9.000000e-02"/>
	<stop  offset="1" style="stop-color:#000000;stop-opacity:2.000000e-02"/>
</linearGradient>
<path class="st11" d="M185.4,143.3L185.4,143.3c-2.1,0.6-3.4,2.7-2.9,4.7l0.8,2.8c2.7,0.2,5.4-0.6,7.6-2.1l-0.8-2.8
	C189.6,143.9,187.5,142.8,185.4,143.3z"/>
<linearGradient id="SVGID_6_" gradientUnits="userSpaceOnUse" x1="-313.2041" y1="239.4454" x2="-313.2041" y2="247.4879" gradientTransform="matrix(0.9647 -0.2634 -0.2634 -0.9647 549.3391 287.0967)">
	<stop  offset="0" style="stop-color:#000000;stop-opacity:0.12"/>
	<stop  offset="0.55" style="stop-color:#000000;stop-opacity:9.000000e-02"/>
	<stop  offset="1" style="stop-color:#000000;stop-opacity:2.000000e-02"/>
</linearGradient>
<path class="st12" d="M179.5,139.1c-0.5-0.5-0.8-1.2-1-2s0-1.5,0.4-2.1c0.5-0.7,1.4-1.1,2.1-1.4c0.8-0.3,1.7-0.5,2.5-0.8
	c1.3-0.6,2.3-1.7,2.7-3.1c0.3,0.6,0.4,1.2,0.5,1.9c0.1,0.7-0.2,1.3-0.6,1.8c0.6-0.5,0.7,0.3,0.7,0.7c0.4,0.3,1.3,0.2,1.4,0.6
	c0.2,0.5,0.3,1,0.3,1.4c-0.1,0.5,0.3,1.3-0.2,1.4"/>
<path class="st7" d="M194.7,135.1c-1.6-5.9-7.8-9.4-13.7-7.8c-5.9,1.6-9.4,7.8-7.8,13.7c1.3,4.6,5.2,7.8,9.9,8.1l-0.8-2.8
	c-0.5-2,0.7-4.1,2.6-4.7l0,0c2-0.5,4.1,0.7,4.7,2.6l0.8,2.8C194.2,144.4,195.9,139.6,194.7,135.1z"/>
<path class="st13" d="M184.4,140L184.4,140c0.4-0.1,0.8,0.1,0.8,0.4l0.9,3.4c0.1,0.3-0.1,0.7-0.4,0.8h-0.1c-0.3,0.1-0.7-0.1-0.8-0.4
	l-0.9-3.4C183.9,140.5,184.1,140.1,184.4,140z"/>
<circle class="st13" cx="183.5" cy="136.6" r="4.3"/>
<path class="st13" d="M185,141.7L185,141.7c-2,0.6-3.2,2.6-2.6,4.7l0.8,2.8c2.6,0.2,5.2-0.5,7.3-2l-0.8-2.8
	C189,142.4,186.9,141.2,185,141.7z"/>
<path class="st13" d="M179.3,137.4c-0.5-0.5-0.8-1.2-1-2c-0.2-0.8,0-1.5,0.4-2.1c0.4-0.7,1.3-1.1,2-1.4c0.8-0.3,1.6-0.4,2.3-0.8
	c1.2-0.6,2.1-1.7,2.5-3c0.3,0.6,0.4,1.2,0.5,1.9c0.1,0.6-0.1,1.3-0.5,1.8c0.5-0.4,0.7,0.3,0.7,0.7c0.4,0.3,1.2,0.2,1.4,0.6
	c0.2,0.5,0.3,0.9,0.3,1.4c-0.1,0.5,0.3,1.3-0.1,1.4"/>
<path class="st3" d="M185.7,131.6c0,0,3-0.5,2,4.3"/>
<rect x="170.7" y="152.4" transform="matrix(0.9647 -0.2634 0.2634 0.9647 -38.2304 56.8225)" class="st14" width="44.2" height="37.1"/>
<rect x="176.7" y="161.5" transform="matrix(0.9647 -0.2634 0.2634 0.9647 -36.1938 55.1391)" class="st3" width="21.6" height="2.1"/>
<rect x="178" y="165.7" transform="matrix(0.9647 -0.2634 0.2634 0.9647 -37.1528 56.3039)" class="st3" width="26.8" height="2.1"/>
<rect x="209.5" y="109.3" transform="matrix(0.9647 -0.2634 0.2634 0.9647 -22.8941 63.5203)" class="st1" width="32" height="15.8"/>
<rect x="213.5" y="124" transform="matrix(0.9647 -0.2634 0.2634 0.9647 -26.6371 65.1146)" class="st15" width="32" height="15.8"/>
<rect x="282.7" y="89.3" transform="matrix(0.9647 -0.2634 0.2634 0.9647 -15.0617 82.0932)" class="st1" width="32" height="15.8"/>
<rect x="286.7" y="104" transform="matrix(0.9647 -0.2634 0.2634 0.9647 -18.7808 83.6838)" class="st15" width="32" height="15.8"/>
<rect x="246" y="99.3" transform="matrix(0.9647 -0.2634 0.2634 0.9647 -18.9903 72.7984)" class="st1" width="32" height="15.8"/>
<rect x="250" y="114.1" transform="matrix(0.9647 -0.2634 0.2634 0.9647 -22.7368 74.3689)" class="st15" width="32" height="15.8"/>
<rect x="218.1" y="143.7" transform="matrix(0.9652 -0.2614 0.2614 0.9652 -31.4735 66.4414)" class="st15" width="31.8" height="15.7"/>
<rect x="223" y="158.4" transform="matrix(0.9647 -0.2634 0.2634 0.9647 -35.3729 68.8098)" class="st16" width="32" height="15.8"/>
<rect x="292.1" y="123.8" transform="matrix(0.9647 -0.2634 0.2634 0.9647 -23.7976 85.7884)" class="st1" width="32" height="15.8"/>
<rect x="296.1" y="138.5" transform="matrix(0.9647 -0.2634 0.2634 0.9647 -27.5405 87.3826)" class="st16" width="32" height="15.8"/>
<rect x="255.3" y="133.8" transform="matrix(0.9647 -0.2634 0.2634 0.9647 -27.7297 76.4698)" class="st1" width="32" height="15.8"/>
<rect x="259.4" y="148.5" transform="matrix(0.9647 -0.2634 0.2634 0.9647 -31.4727 78.0641)" class="st16" width="32" height="15.8"/>
<linearGradient id="SVGID_7_" gradientUnits="userSpaceOnUse" x1="-282.4806" y1="241.6106" x2="-275.4333" y2="241.6106" gradientTransform="matrix(0.9647 -0.2634 -0.2634 -0.9647 549.3357 287.0949)">
	<stop  offset="0" style="stop-color:#000000;stop-opacity:9.000000e-02"/>
	<stop  offset="0.55" style="stop-color:#000000;stop-opacity:7.000000e-02"/>
	<stop  offset="1" style="stop-color:#000000;stop-opacity:2.000000e-02"/>
</linearGradient>
<path class="st17" d="M215.7,124.4c1.9-0.5,3.8,0.5,4.2,2.2c0.4,1.7-0.7,3.6-2.5,4.1c-1.9,0.5-3.8-0.5-4.2-2.2
	C212.8,126.7,213.9,124.9,215.7,124.4z"/>
<circle class="st7" cx="215.8" cy="127.2" r="3.1"/>
<linearGradient id="SVGID_8_" gradientUnits="userSpaceOnUse" x1="-245.1393" y1="241.606" x2="-238.0921" y2="241.606" gradientTransform="matrix(0.9647 -0.2634 -0.2634 -0.9647 549.3432 287.0916)">
	<stop  offset="0" style="stop-color:#000000;stop-opacity:9.000000e-02"/>
	<stop  offset="0.55" style="stop-color:#000000;stop-opacity:7.000000e-02"/>
	<stop  offset="1" style="stop-color:#000000;stop-opacity:2.000000e-02"/>
</linearGradient>
<path class="st18" d="M251.8,114.5c1.9-0.5,3.8,0.5,4.2,2.2c0.4,1.7-0.7,3.6-2.5,4.1s-3.8-0.5-4.2-2.2
	C248.7,116.8,249.9,115,251.8,114.5z"/>
<circle class="st7" cx="252.5" cy="117.4" r="3.1"/>
<linearGradient id="SVGID_9_" gradientUnits="userSpaceOnUse" x1="-206.6056" y1="241.6367" x2="-199.5584" y2="241.6367" gradientTransform="matrix(0.9647 -0.2634 -0.2634 -0.9647 549.3364 287.0906)">
	<stop  offset="0" style="stop-color:#000000;stop-opacity:9.000000e-02"/>
	<stop  offset="0.55" style="stop-color:#000000;stop-opacity:7.000000e-02"/>
	<stop  offset="1" style="stop-color:#000000;stop-opacity:2.000000e-02"/>
</linearGradient>
<path class="st19" d="M288.9,104.3c1.9-0.5,3.8,0.5,4.2,2.2c0.4,1.7-0.7,3.6-2.5,4.1c-1.9,0.5-3.8-0.5-4.2-2.2
	C286,106.7,287.1,104.8,288.9,104.3z"/>
<circle class="st7" cx="289.8" cy="107.3" r="3.1"/>
<linearGradient id="SVGID_10_" gradientUnits="userSpaceOnUse" x1="-282.4824" y1="205.7504" x2="-275.4352" y2="205.7504" gradientTransform="matrix(0.9647 -0.2634 -0.2634 -0.9647 549.3367 287.0898)">
	<stop  offset="0" style="stop-color:#000000;stop-opacity:9.000000e-02"/>
	<stop  offset="0.55" style="stop-color:#000000;stop-opacity:7.000000e-02"/>
	<stop  offset="1" style="stop-color:#000000;stop-opacity:2.000000e-02"/>
</linearGradient>
<path class="st20" d="M225.2,159c1.9-0.5,3.8,0.5,4.2,2.2s-0.7,3.6-2.5,4.1s-3.8-0.5-4.2-2.2C222.2,161.3,223.3,159.5,225.2,159z"/>
<circle class="st21" cx="226" cy="161.9" r="3.1"/>
<linearGradient id="SVGID_11_" gradientUnits="userSpaceOnUse" x1="-245.1311" y1="205.7457" x2="-238.0839" y2="205.7457" gradientTransform="matrix(0.9647 -0.2634 -0.2634 -0.9647 549.3346 287.089)">
	<stop  offset="0" style="stop-color:#000000;stop-opacity:9.000000e-02"/>
	<stop  offset="0.55" style="stop-color:#000000;stop-opacity:7.000000e-02"/>
	<stop  offset="1" style="stop-color:#000000;stop-opacity:2.000000e-02"/>
</linearGradient>
<path class="st22" d="M261.2,149.1c1.9-0.5,3.8,0.5,4.2,2.2c0.5,1.8-0.7,3.6-2.5,4.1c-1.9,0.5-3.8-0.5-4.2-2.2
	C258.2,151.5,259.3,149.7,261.2,149.1z"/>
<circle class="st21" cx="262" cy="152.1" r="3.1"/>
<linearGradient id="SVGID_12_" gradientUnits="userSpaceOnUse" x1="-206.6133" y1="205.6725" x2="-199.5661" y2="205.6725" gradientTransform="matrix(0.9647 -0.2634 -0.2634 -0.9647 549.3374 287.0854)">
	<stop  offset="0" style="stop-color:#000000;stop-opacity:9.000000e-02"/>
	<stop  offset="0.55" style="stop-color:#000000;stop-opacity:7.000000e-02"/>
	<stop  offset="1" style="stop-color:#000000;stop-opacity:2.000000e-02"/>
</linearGradient>
<path class="st23" d="M298.4,139c1.9-0.5,3.8,0.5,4.2,2.2c0.5,1.8-0.7,3.6-2.5,4.1c-1.9,0.5-3.8-0.5-4.2-2.2
	C295.4,141.4,296.5,139.5,298.4,139z"/>
<circle class="st21" cx="299.2" cy="142" r="3.1"/>
<rect x="178.4" y="136.3" class="st1" width="167.7" height="82.8"/>
<linearGradient id="SVGID_13_" gradientUnits="userSpaceOnUse" x1="262.1688" y1="80.976" x2="262.1688" y2="165.776" gradientTransform="matrix(1 0 0 -1 0 302)">
	<stop  offset="0" style="stop-color:#808080;stop-opacity:0.25"/>
	<stop  offset="0.54" style="stop-color:#808080;stop-opacity:0.12"/>
	<stop  offset="1" style="stop-color:#808080;stop-opacity:0.1"/>
</linearGradient>
<rect x="177.2" y="136.2" class="st24" width="169.9" height="84.8"/>
<rect x="178.4" y="144.7" class="st3" width="167.7" height="74.4"/>
<circle class="st4" cx="182.4" cy="140.4" r="2.1"/>
<circle class="st5" cx="188.8" cy="140.4" r="2.1"/>
<circle class="st6" cx="195.1" cy="140.4" r="2.1"/>
<rect x="178.4" y="144.6" class="st7" width="44.2" height="74.5"/>
<linearGradient id="SVGID_14_" gradientUnits="userSpaceOnUse" x1="359.2692" y1="16.8904" x2="359.2692" y2="38.5495" gradientTransform="matrix(1 0 0 -1 -158.75 195.26)">
	<stop  offset="0" style="stop-color:#000000;stop-opacity:0.12"/>
	<stop  offset="0.55" style="stop-color:#000000;stop-opacity:9.000000e-02"/>
	<stop  offset="1" style="stop-color:#000000;stop-opacity:2.000000e-02"/>
</linearGradient>
<path class="st25" d="M212.3,167.9c0-6.2-5.3-11.2-11.7-11.2s-11.8,5-11.8,11.2c0,4.8,3.2,9,7.8,10.5v-2.9c0-2.1,1.8-3.8,4-3.8l0,0
	c2.2,0,4,1.7,4,3.8v2.9C209,176.8,212.3,172.7,212.3,167.9z"/>
<linearGradient id="SVGID_15_" gradientUnits="userSpaceOnUse" x1="200.5535" y1="127.3006" x2="200.5535" y2="132.0325" gradientTransform="matrix(1 0 0 -1 0 302)">
	<stop  offset="0" style="stop-color:#000000;stop-opacity:0.12"/>
	<stop  offset="0.55" style="stop-color:#000000;stop-opacity:9.000000e-02"/>
	<stop  offset="1" style="stop-color:#000000;stop-opacity:2.000000e-02"/>
</linearGradient>
<path class="st26" d="M200.5,170h0.2c0.3,0,0.6,0.3,0.6,0.6v3.5c0,0.3-0.3,0.6-0.6,0.6h-0.2c-0.3,0-0.6-0.3-0.6-0.6v-3.5
	C199.8,170.2,200.1,170,200.5,170z"/>
<linearGradient id="SVGID_16_" gradientUnits="userSpaceOnUse" x1="200.5616" y1="131.3966" x2="200.5616" y2="139.9742" gradientTransform="matrix(1 0 0 -1 0 302)">
	<stop  offset="0" style="stop-color:#000000;stop-opacity:0.12"/>
	<stop  offset="0.55" style="stop-color:#000000;stop-opacity:9.000000e-02"/>
	<stop  offset="1" style="stop-color:#000000;stop-opacity:2.000000e-02"/>
</linearGradient>
<ellipse class="st27" cx="200.6" cy="166.3" rx="4.5" ry="4.3"/>
<linearGradient id="SVGID_17_" gradientUnits="userSpaceOnUse" x1="359.3116" y1="16.2544" x2="359.3116" y2="23.5632" gradientTransform="matrix(1 0 0 -1 -158.75 195.26)">
	<stop  offset="0" style="stop-color:#000000;stop-opacity:0.12"/>
	<stop  offset="0.55" style="stop-color:#000000;stop-opacity:9.000000e-02"/>
	<stop  offset="1" style="stop-color:#000000;stop-opacity:2.000000e-02"/>
</linearGradient>
<path class="st28" d="M200.6,171.7L200.6,171.7c-2.2,0-4,1.7-4,3.8v2.9c2.5,0.8,5.3,0.8,8,0v-2.9
	C204.5,173.4,202.7,171.7,200.6,171.7z"/>
<linearGradient id="SVGID_18_" gradientUnits="userSpaceOnUse" x1="359.2434" y1="28.4499" x2="359.2434" y2="36.4904" gradientTransform="matrix(1 0 0 -1 -158.75 195.26)">
	<stop  offset="0" style="stop-color:#000000;stop-opacity:0.12"/>
	<stop  offset="0.55" style="stop-color:#000000;stop-opacity:9.000000e-02"/>
	<stop  offset="1" style="stop-color:#000000;stop-opacity:2.000000e-02"/>
</linearGradient>
<path class="st29" d="M196,166.1c-0.3-0.7-0.5-1.4-0.5-2.1c0.1-0.8,0.4-1.4,1-2c0.7-0.5,1.5-0.8,2.4-0.8c0.8-0.1,1.7,0,2.5-0.2
	c1.4-0.3,2.6-1,3.5-2.2c0.1,0.6,0.1,1.3,0,1.9c-0.1,0.7-0.5,1.2-1,1.5c0.7-0.3,0.6,0.4,0.4,0.8c0.3,0.4,1.2,0.4,1.2,0.9
	c0.1,0.5,0,1-0.2,1.5c-0.2,0.4,0,1.3-0.5,1.4"/>
<path class="st7" d="M211.7,166.2c0-6.2-5-11.2-11.2-11.2s-11.2,5-11.2,11.2c0,4.7,3,8.9,7.4,10.5v-2.9c0-2.1,1.7-3.7,3.8-3.8l0,0
	c2.1,0,3.8,1.7,3.8,3.8v2.9C208.7,175.1,211.7,170.9,211.7,166.2z"/>
<path class="st13" d="M200.5,168.4L200.5,168.4c0.4,0,0.7,0.3,0.7,0.6v3.5c0,0.3-0.3,0.6-0.6,0.6h-0.1c-0.3,0-0.6-0.3-0.6-0.6V169
	C199.9,168.6,200.1,168.4,200.5,168.4z"/>
<circle class="st13" cx="200.5" cy="164.6" r="4.3"/>
<path class="st13" d="M200.5,170.1L200.5,170.1c-2.1,0-3.8,1.7-3.8,3.8v2.9c2.5,0.8,5.1,0.8,7.5,0v-2.9
	C204.3,171.8,202.6,170.1,200.5,170.1z"/>
<path class="st13" d="M196.2,164.5c-0.3-0.7-0.5-1.4-0.4-2.1c0.1-0.8,0.4-1.4,0.9-2c0.6-0.5,1.4-0.8,2.3-0.8c0.8-0.1,1.6,0,2.5-0.2
	c1.4-0.3,2.5-1.1,3.3-2.2c0.1,0.6,0.1,1.3,0,1.9c-0.1,0.6-0.4,1.2-1,1.5c0.7-0.3,0.6,0.4,0.4,0.8c0.3,0.4,1.1,0.4,1.2,0.9
	c0.1,0.5,0,1-0.2,1.5c-0.2,0.4,0,1.3-0.5,1.4"/>
<path class="st3" d="M204,160.5c0,0,3,0.3,0.8,4.7"/>
<rect x="178.3" y="181.8" class="st14" width="44.2" height="37.1"/>
<rect x="186.7" y="189.8" class="st3" width="21.6" height="2.1"/>
<rect x="239.1" y="157.2" class="st16" width="21.6" height="2.1"/>
<rect x="239.1" y="169.8" class="st15" width="77.3" height="2.1"/>
<rect x="239.1" y="182.5" class="st15" width="77.3" height="2.1"/>
<rect x="239.1" y="195.2" class="st30" width="21.6" height="2.1"/>
<rect x="266.9" y="195.2" class="st1" width="21.6" height="2.1"/>
<rect x="294.9" y="195.2" class="st30" width="21.6" height="2.1"/>
<rect x="186.7" y="194.7" class="st3" width="26.8" height="2.1"/>
</svg>
