<svg xmlns="http://www.w3.org/2000/svg" xmlns:xlink="http://www.w3.org/1999/xlink" viewBox="0 0 27.059 27.059"><defs><style>.a{fill:#fff;}.b,.e{fill:none;}.b{stroke:#fff;}.c{clip-path:url(#a);}.d{stroke:none;}</style><clipPath id="a"><rect class="a" width="6.429" height="11.771"/></clipPath></defs><g class="b"><ellipse class="d" cx="13.529" cy="13.529" rx="13.529" ry="13.529"/><ellipse class="e" cx="13.529" cy="13.529" rx="13.029" ry="13.029"/></g><g transform="translate(10.05 7.768)"><g transform="translate(0 0)"><g class="c"><path class="a" d="M6.123,0H4.592A2.673,2.673,0,0,0,1.776,2.893V4.225H.245A.242.242,0,0,0,0,4.47V6.4a.242.242,0,0,0,.245.245H1.776v4.883a.242.242,0,0,0,.245.245H4.026a.242.242,0,0,0,.245-.245V6.643H6.062A.242.242,0,0,0,6.306,6.4V4.47a.263.263,0,0,0-.245-.245H4.255V3.092c0-.551.122-.827.842-.827H6.123a.242.242,0,0,0,.245-.245V.245A.242.242,0,0,0,6.123,0Zm0,0" transform="translate(0 -0.015)"/></g></g></g></svg>