<?xml version="1.0" encoding="utf-8"?>
<!-- Generator: Adobe Illustrator 22.0.1, SVG Export Plug-In . SVG Version: 6.00 Build 0)  -->
<svg version="1.1" id="Capa_1" xmlns="http://www.w3.org/2000/svg" xmlns:xlink="http://www.w3.org/1999/xlink" x="0px" y="0px"
	 viewBox="0 0 471.7 415.7" style="enable-background:new 0 0 471.7 415.7;" xml:space="preserve">
<style type="text/css">
	.st0{fill:#EC223E;}
</style>
<g>
	<path class="st0" d="M471.7,131c0,34.9-13.6,67.7-38.3,92.4L245.2,410.9c-2.6,2.6-6.1,3.9-9.5,3.9c-3.4,0-6.9-1.4-9.5-4L38.4,223
		C13.7,198.3,0,165.6,0,130.7C-0.1,95.8,13.5,63,38.2,38.3C62.8,13.7,95.6,0.1,130.4,0.1c34.9,0,67.8,13.7,92.5,38.4L236,51.6
		l12.9-12.9C273.6,14,306.4,0.4,341.3,0.4c34.9,0,67.6,13.5,92.3,38.2C458.3,63.3,471.8,96.1,471.7,131z"/>
</g>
</svg>
