<?xml version="1.0" encoding="utf-8"?>
<!-- Generator: Adobe Illustrator 22.0.1, SVG Export Plug-In . SVG Version: 6.00 Build 0)  -->
<svg version="1.1" id="Capa_1" xmlns="http://www.w3.org/2000/svg" xmlns:xlink="http://www.w3.org/1999/xlink" x="0px" y="0px"
	 viewBox="0 0 471.7 415.7" style="enable-background:new 0 0 471.7 415.7;" xml:space="preserve">
<style type="text/css">
	.st0{fill:#EC223E;}
</style>
<g>
	<path class="st0" d="M433.6,38.6c-24.7-24.7-57.4-38.2-92.3-38.2S273.6,14,248.9,38.7L236,51.6l-13.1-13.1
		c-24.7-24.7-57.6-38.4-92.5-38.4c-34.8,0-67.6,13.6-92.2,38.2C13.5,63-0.1,95.8,0,130.7c0,34.9,13.7,67.6,38.4,92.3l187.8,187.8
		c2.6,2.6,6.1,4,9.5,4s6.9-1.3,9.5-3.9l188.2-187.5c24.7-24.7,38.3-57.5,38.3-92.4C471.8,96.1,458.3,63.3,433.6,38.6z M414.4,204.3
		l-178.7,178L57.4,204C37.8,184.4,27,158.4,27,130.7S37.7,77,57.3,57.5c19.5-19.5,45.5-30.3,73.1-30.3c27.7,0,53.8,10.8,73.4,30.4
		l22.6,22.6c5.3,5.3,13.8,5.3,19.1,0l22.4-22.4c19.6-19.6,45.7-30.4,73.3-30.4c27.6,0,53.6,10.8,73.2,30.3
		c19.6,19.6,30.3,45.6,30.3,73.3C444.8,158.7,434,184.7,414.4,204.3z"/>
</g>
</svg>
