<svg id="Calque_1" data-name="Calque 1" xmlns="http://www.w3.org/2000/svg" viewBox="0 0 478.02 478.02"><defs><style>.cls-1{fill:#fff;}</style></defs><title>logo instagram tipsmyweb</title><path class="cls-1" d="M347.81,217.49c-.43-9.82-2-16.57-4.29-22.41a47.31,47.31,0,0,0-27-27c-5.88-2.28-12.59-3.87-22.41-4.3s-13-.58-38.11-.58-28.22.11-38.08.55-16.56,2-22.41,4.29a47.33,47.33,0,0,0-27,27c-2.27,5.88-3.86,12.6-4.29,22.41s-.58,13-.58,38.11.11,28.23.54,38.08,2,16.56,4.3,22.41a47.26,47.26,0,0,0,27,27c5.88,2.28,12.59,3.86,22.41,4.3s13,.54,38.07.54,28.23-.11,38.08-.54,16.56-2,22.41-4.3a47.22,47.22,0,0,0,27-27c2.28-5.88,3.86-12.59,4.3-22.41s.54-13,.54-38.08S348.24,227.34,347.81,217.49Zm-16.64,75.43c-.39,9-1.91,13.89-3.17,17.14a30.67,30.67,0,0,1-17.54,17.54c-3.25,1.26-8.16,2.78-17.15,3.18-9.74.43-12.66.54-37.31.54s-27.61-.11-37.32-.54c-9-.4-13.9-1.92-17.14-3.18a28.4,28.4,0,0,1-10.61-6.89A28.78,28.78,0,0,1,184,310.1c-1.26-3.25-2.78-8.16-3.17-17.15-.44-9.74-.54-12.66-.54-37.31s.1-27.61.54-37.32c.39-9,1.91-13.89,3.17-17.14A28.09,28.09,0,0,1,191,190.57a28.78,28.78,0,0,1,10.61-6.9c3.25-1.26,8.16-2.78,17.15-3.17,9.74-.44,12.66-.54,37.31-.54s27.61.1,37.32.54c9,.39,13.89,1.91,17.14,3.17A30.53,30.53,0,0,1,328,201.18c1.26,3.25,2.78,8.15,3.17,17.14.44,9.74.54,12.67.54,37.32S331.61,283.17,331.17,292.92Z" transform="translate(-16.92 -16.54)"/><path class="cls-1" d="M256,208.11a47.46,47.46,0,1,0,47.46,47.45A47.47,47.47,0,0,0,256,208.11Zm0,78.24a30.79,30.79,0,1,1,30.79-30.79A30.8,30.8,0,0,1,256,286.35Z" transform="translate(-16.92 -16.54)"/><path class="cls-1" d="M316.38,206.23a11.08,11.08,0,1,1-11.09-11.08A11.09,11.09,0,0,1,316.38,206.23Z" transform="translate(-16.92 -16.54)"/><path class="cls-1" d="M255.92,494.56a239,239,0,0,1-169-408,239,239,0,0,1,338,338A237.45,237.45,0,0,1,255.92,494.56Zm0-462A223,223,0,0,0,98.23,413.24,223,223,0,0,0,413.62,97.85,221.58,221.58,0,0,0,255.92,32.54Z" transform="translate(-16.92 -16.54)"/></svg>