<svg id="Calque_1" data-name="Calque 1" xmlns="http://www.w3.org/2000/svg" viewBox="0 0 485.02 485.02"><defs><style>.cls-1,.cls-2{fill:#fff;}.cls-2{stroke:#fff;stroke-miterlimit:10;stroke-width:7px;}</style></defs><title>logo instagram tipsmyweb</title><path class="cls-1" d="M375.83,205.66c-.56-12.85-2.64-21.69-5.62-29.35a62,62,0,0,0-35.4-35.4c-7.71-3-16.5-5.06-29.35-5.62s-17.06-.76-49.91-.76-37,.14-49.87.71-21.69,2.65-29.34,5.62a59,59,0,0,0-21.46,14,59.6,59.6,0,0,0-13.95,21.41c-3,7.71-5.05,16.5-5.62,29.35s-.76,17.07-.76,49.91.15,37,.71,49.87,2.65,21.69,5.63,29.35a62,62,0,0,0,35.4,35.4c7.7,3,16.49,5.05,29.35,5.62s17,.71,49.86.71,37-.14,49.86-.71,21.7-2.64,29.35-5.62a61.87,61.87,0,0,0,35.4-35.4c3-7.71,5.06-16.5,5.63-29.35s.71-17,.71-49.87S376.4,218.56,375.83,205.66ZM354,304.44c-.52,11.82-2.5,18.2-4.15,22.45a40.15,40.15,0,0,1-23,23c-4.25,1.66-10.68,3.64-22.45,4.16-12.76.57-16.58.71-48.86.71s-36.16-.14-48.88-.71c-11.81-.52-18.19-2.5-22.45-4.16a37.2,37.2,0,0,1-13.89-9,37.6,37.6,0,0,1-9-13.89c-1.65-4.25-3.64-10.68-4.16-22.45-.57-12.76-.71-16.59-.71-48.87s.14-36.16.71-48.87c.52-11.82,2.51-18.2,4.16-22.45a36.76,36.76,0,0,1,9.08-13.9,37.37,37.37,0,0,1,13.89-9c4.26-1.66,10.68-3.64,22.45-4.16,12.76-.57,16.59-.71,48.87-.71s36.16.14,48.87.71c11.82.52,18.2,2.5,22.45,4.16a37.09,37.09,0,0,1,13.9,9,37.77,37.77,0,0,1,9,13.9c1.65,4.25,3.63,10.68,4.15,22.45.57,12.76.71,16.59.71,48.87S354.61,291.68,354,304.44Z" transform="translate(-12.99 -12.99)"/><path class="cls-1" d="M255.55,193.37a62.16,62.16,0,1,0,62.15,62.15A62.17,62.17,0,0,0,255.55,193.37Zm0,102.47a40.32,40.32,0,1,1,40.31-40.32A40.32,40.32,0,0,1,255.55,295.84Z" transform="translate(-12.99 -12.99)"/><path class="cls-1" d="M334.67,190.92a14.51,14.51,0,1,1-14.51-14.51A14.51,14.51,0,0,1,334.67,190.92Z" transform="translate(-12.99 -12.99)"/><path class="cls-2" d="M255.5,494.51a239,239,0,0,1-169-408,239,239,0,1,1,338,338A237.41,237.41,0,0,1,255.5,494.51Zm0-462A223,223,0,0,0,97.81,413.19,223,223,0,1,0,413.19,97.81,221.55,221.55,0,0,0,255.5,32.49Z" transform="translate(-12.99 -12.99)"/></svg>