<svg xmlns="http://www.w3.org/2000/svg" viewBox="0 0 27.059 27.059"><defs><style>.a,.d{fill:none;}.a{stroke:#fff;}.b{fill:#fff;}.c{stroke:none;}</style></defs><g class="a"><ellipse class="c" cx="13.529" cy="13.529" rx="13.529" ry="13.529"/><ellipse class="d" cx="13.529" cy="13.529" rx="13.029" ry="13.029"/></g><g transform="translate(7.662 8.861)"><path class="b" d="M10.481,2.358v.314A6.78,6.78,0,0,1,3.669,9.486,6.718,6.718,0,0,1,0,8.385c.21,0,.367.052.576.052A4.715,4.715,0,0,0,3.564,7.389,2.425,2.425,0,0,1,1.31,5.712a1.451,1.451,0,0,0,.472.052,2.631,2.631,0,0,0,.629-.1A2.416,2.416,0,0,1,.472,3.3V3.249a1.645,1.645,0,0,0,1.1.367A2.385,2.385,0,0,1,.524,1.625,2.434,2.434,0,0,1,.839.419,6.692,6.692,0,0,0,5.765,2.935a1.783,1.783,0,0,1-.052-.524A2.4,2.4,0,0,1,8.123,0,2.5,2.5,0,0,1,9.853.734a5.35,5.35,0,0,0,1.52-.576,2.205,2.205,0,0,1-1.048,1.31A5.8,5.8,0,0,0,11.687,1.1a3.96,3.96,0,0,1-1.205,1.258Zm0,0"/></g></svg>