<?xml version="1.0" standalone="no"?>
<!DOCTYPE svg PUBLIC "-//W3C//DTD SVG 20010904//EN"
 "http://www.w3.org/TR/2001/REC-SVG-20010904/DTD/svg10.dtd">
<svg version="1.0" xmlns="http://www.w3.org/2000/svg"
 width="2084.000000pt" height="2084.000000pt" viewBox="0 0 2084.000000 2084.000000"
 preserveAspectRatio="xMidYMid meet">
<metadata>
Created by potrace 1.14, written by Peter Selinger 2001-2017
</metadata>
<g transform="translate(0.000000,2084.000000) scale(0.100000,-0.100000)"
fill="#000000" stroke="none">
<path d="M11618 20085 c-2 -2 -35 -5 -74 -9 -119 -9 -380 -76 -450 -115 -11
-5 -53 -26 -94 -46 -86 -42 -243 -146 -314 -207 -164 -143 -459 -466 -686
-752 -8 -10 -27 -33 -41 -50 -31 -37 -107 -137 -191 -248 -34 -46 -66 -87 -70
-93 -14 -17 -141 -195 -203 -285 -60 -86 -193 -285 -277 -415 -86 -134 -271
-441 -372 -620 -103 -180 -110 -193 -156 -280 -23 -44 -53 -98 -65 -120 -51
-91 -365 -727 -365 -740 0 -2 -19 -43 -41 -91 -70 -151 -243 -561 -314 -744
-37 -96 -71 -183 -76 -192 -18 -35 -11 -40 45 -34 29 4 64 9 76 11 12 2 51 7
88 11 37 3 70 8 73 9 3 2 38 7 77 10 40 3 81 8 90 10 10 2 51 6 91 10 40 3 80
8 89 10 9 1 58 6 107 10 50 3 104 8 120 11 17 2 71 6 120 10 50 3 115 7 145 9
457 35 1338 39 1725 10 72 -6 187 -14 285 -20 47 -3 99 -8 115 -10 17 -2 66
-6 110 -10 44 -4 87 -9 95 -10 10 -1 33 34 68 104 30 58 82 158 117 221 34 63
80 147 101 185 81 149 256 436 402 660 63 95 309 444 321 455 3 3 35 43 70 90
136 179 289 357 457 530 99 102 127 135 190 220 144 194 242 439 279 698 19
136 12 398 -14 520 -56 261 -145 459 -300 667 -65 87 -244 261 -340 329 -193
138 -457 243 -694 277 -72 10 -312 21 -319 14z"/>
<path d="M9677 14734 c-1 -1 -96 -5 -212 -8 -217 -6 -335 -11 -465 -21 -41 -3
-106 -8 -145 -10 -136 -10 -285 -24 -425 -40 -88 -10 -222 -25 -278 -30 -23
-3 -55 -7 -70 -9 -27 -4 -96 -15 -142 -21 -14 -2 -50 -7 -80 -10 -30 -3 -62
-8 -70 -10 -8 -2 -35 -7 -60 -10 -25 -4 -84 -13 -131 -21 -48 -8 -99 -16 -115
-18 -47 -7 -508 -94 -589 -112 -11 -2 -33 -7 -50 -10 -16 -3 -58 -11 -91 -19
-34 -8 -73 -16 -85 -19 -24 -4 -80 -17 -249 -57 -47 -11 -130 -31 -185 -45
-55 -14 -107 -27 -116 -29 -28 -6 -290 -75 -344 -90 -27 -8 -138 -40 -245 -71
-107 -30 -202 -58 -210 -61 -8 -3 -20 -7 -26 -8 -68 -15 -696 -224 -829 -276
-368 -143 -682 -443 -849 -812 -152 -335 -182 -735 -82 -1082 32 -110 38 -130
44 -140 4 -5 7 -12 8 -15 5 -28 67 -154 113 -230 257 -431 709 -718 1206 -768
87 -8 274 -7 340 2 28 4 66 9 85 12 75 11 201 48 492 145 167 55 310 102 318
104 8 2 44 13 80 24 222 67 311 93 325 95 5 1 36 10 67 19 58 17 473 124 518
133 13 3 63 14 110 25 99 24 115 27 155 35 17 3 68 14 115 24 47 10 96 21 110
23 14 3 66 13 115 22 50 9 122 22 160 30 39 8 88 16 110 20 23 3 52 7 65 10
13 3 42 7 65 10 22 4 54 9 70 11 29 5 39 7 128 19 50 6 116 16 137 20 8 2 49
6 90 10 41 3 82 8 90 10 8 2 44 7 80 10 36 4 76 8 90 10 32 5 220 21 350 30
265 18 481 26 755 26 190 0 488 -8 585 -16 25 -2 95 -6 155 -10 61 -3 117 -8
125 -10 8 -2 52 -7 97 -10 46 -3 92 -8 102 -10 11 -2 51 -7 88 -10 37 -4 77
-9 88 -11 11 -2 43 -6 70 -9 28 -3 61 -7 75 -10 14 -3 39 -7 55 -9 134 -21
300 -51 400 -71 66 -14 129 -27 140 -29 11 -2 38 -9 60 -14 22 -6 51 -13 65
-16 147 -26 591 -158 830 -246 231 -85 338 -116 465 -135 77 -11 330 -15 390
-6 33 5 78 12 100 15 177 26 374 99 550 204 364 217 648 613 731 1022 2 14 7
32 9 40 20 69 27 387 12 505 -34 275 -170 584 -352 800 -44 52 -144 152 -205
205 -85 74 -314 212 -415 250 -11 4 -49 19 -85 33 -544 213 -1314 423 -1965
537 -153 26 -220 38 -270 45 -22 3 -51 7 -65 10 -14 2 -47 7 -75 10 -27 3 -65
8 -82 11 -18 2 -48 6 -65 8 -57 8 -201 25 -263 31 -33 3 -78 8 -100 10 -22 2
-67 7 -100 10 -33 3 -82 7 -110 10 -98 9 -308 22 -520 31 -131 6 -763 12 -768
8z"/>
<path d="M9597 11103 c-1 0 -74 -4 -162 -8 -224 -10 -360 -19 -455 -30 -19 -2
-69 -7 -110 -10 -87 -7 -145 -13 -180 -20 -14 -2 -50 -7 -80 -10 -30 -3 -70
-7 -88 -10 -18 -2 -49 -6 -70 -9 -81 -11 -123 -17 -154 -22 -18 -2 -49 -7 -68
-10 -57 -8 -264 -44 -280 -49 -8 -2 -35 -7 -60 -10 -25 -4 -65 -11 -90 -16
-25 -6 -56 -12 -70 -14 -14 -2 -47 -9 -75 -15 -27 -6 -61 -14 -75 -16 -53 -10
-298 -66 -355 -80 -33 -9 -67 -17 -75 -19 -8 -2 -35 -8 -60 -14 -25 -7 -52
-13 -61 -15 -9 -2 -61 -17 -117 -32 l-102 -27 -1 -36 c-1 -20 -2 -49 -4 -66
-14 -153 -14 -158 -30 -360 -12 -170 -18 -279 -30 -630 -11 -314 -6 -910 10
-1195 2 -41 7 -124 10 -185 3 -60 7 -130 10 -155 2 -25 7 -79 10 -120 11 -139
23 -277 30 -330 3 -19 7 -62 10 -95 3 -33 7 -73 10 -90 2 -16 7 -56 10 -88 4
-32 8 -68 10 -79 3 -11 7 -46 11 -77 3 -31 7 -63 9 -71 6 -32 15 -97 20 -135
4 -35 12 -85 29 -175 2 -14 9 -59 16 -100 6 -41 15 -93 20 -115 5 -22 18 -89
30 -150 36 -193 68 -339 121 -550 22 -88 42 -168 44 -179 49 -223 298 -982
390 -1191 7 -16 23 -53 34 -81 11 -28 28 -71 39 -95 11 -24 43 -98 72 -164 66
-151 229 -477 307 -615 33 -58 72 -127 88 -155 104 -184 339 -532 472 -700
218 -274 465 -542 659 -712 32 -29 70 -63 84 -77 113 -107 517 -403 661 -484
20 -11 47 -26 60 -34 13 -7 31 -18 39 -24 12 -9 172 -96 230 -125 158 -79 393
-176 577 -238 298 -101 561 -162 883 -205 92 -13 149 -18 325 -32 63 -5 455
-5 505 0 25 3 77 7 117 11 40 3 80 7 90 9 10 2 40 7 66 10 27 4 59 9 70 12 12
2 38 7 57 10 19 3 43 7 52 10 10 3 30 7 45 10 108 19 340 89 503 151 415 158
780 378 1159 698 229 192 529 520 735 800 36 50 70 96 76 102 17 21 214 323
265 407 127 211 280 506 385 741 34 77 66 148 71 157 85 167 388 1021 423
1193 4 17 9 41 11 55 20 96 32 236 29 335 -4 142 -11 195 -49 369 -20 91 -100
296 -137 348 -10 14 -18 29 -18 33 0 4 -24 44 -53 88 -161 246 -387 443 -652
567 -94 44 -231 95 -286 105 -13 3 -36 7 -51 11 -15 3 -30 5 -33 5 -2 0 -19 4
-35 9 -95 27 -399 30 -520 5 -14 -3 -41 -8 -60 -11 -65 -10 -224 -58 -305 -94
-299 -129 -536 -326 -712 -590 -96 -143 -150 -271 -253 -595 -103 -328 -267
-715 -409 -970 -24 -44 -49 -89 -55 -100 -129 -231 -352 -500 -516 -623 -96
-71 -163 -96 -255 -96 -120 0 -208 10 -340 38 -44 9 -173 56 -240 86 -237 109
-476 310 -684 575 -34 44 -68 87 -74 95 -36 46 -156 236 -220 347 -164 290
-302 606 -421 968 -65 200 -133 436 -170 593 -17 70 -92 425 -100 469 -13 80
-56 343 -61 378 -3 23 -7 50 -9 60 -2 11 -7 49 -11 85 -4 36 -8 72 -10 80 -1
8 -6 44 -9 80 -4 36 -9 81 -11 100 -2 19 -7 62 -10 95 -3 33 -7 78 -10 100 -3
35 -9 107 -20 270 -14 200 -19 415 -19 785 0 389 4 552 19 785 12 192 16 244
21 295 2 30 7 80 9 110 3 30 7 76 10 103 13 121 16 154 20 187 5 41 23 190 30
252 3 24 8 59 12 78 3 19 7 44 8 55 1 11 5 40 9 65 l7 45 -231 0 c-128 0 -232
-1 -233 -2z"/>
</g>
</svg>
